# xmcd
#
# Track frame offsets:
#       150
#       18681
#       34648
#       54349
#       69035
#       88707
#       109690
#       128333
#       152520
#       178240
#       199194
#       215942
#       246175
#
# Disc length: 3523 seconds
#
# Revision: 0
# Processed by: cddbd v1.4PL0 Copyright (c) Steve Scherf et al.
# Submitted via: CD-DA_X-Tractor v0.21
#
DISCID=ac0dc10d
DTITLE=Big Gilson and Allan Ghreen - Cab Driver Blues
DYEAR=1900
DGENRE=
TTITLE0=Cab Driver Blues
TTITLE1=Aleluia, Aleluia
TTITLE2=Hey Doc
TTITLE3=Clube 34 Blues
TTITLE4=Ghreen's Boogie
TTITLE5=Tropical Feelin' Blues
TTITLE6=Big G. Billy
TTITLE7=Helena
TTITLE8=Tangerina
TTITLE9=Ice Cream Woman
TTITLE10=Happy Hooker
TTITLE11=Jammin' in Big D
TTITLE12=Cab Driver Blues (versão acústica)
EXTD=
EXTT0=
EXTT1=
EXTT2=
EXTT3=
EXTT4=
EXTT5=
EXTT6=
EXTT7=
EXTT8=
EXTT9=
EXTT10=
EXTT11=
EXTT12=
PLAYORDER=
